<?xml version="1.0" encoding="UTF-8"?>
<svg xmlns="http://www.w3.org/2000/svg" width="800.000" height="600.000" viewBox="0.0 0.0 800.000 600.000" version="1.1">
  <title>Produce by Acme CAD Converter</title>
  <desc>Produce by Acme CAD Converter</desc>
<polyline points="227.75,160.88 268.98,160.88" style="fill:none;stroke:black;stroke-width:0.5"/>
<polyline points="268.98,160.88 268.98,294.94" style="fill:none;stroke:black;stroke-width:0.5"/>
<polyline points="227.75,373.89 227.75,160.88" style="fill:none;stroke:black;stroke-width:0.5"/>
<polyline points="420.15,160.88 390.37,160.88" style="fill:none;stroke:black;stroke-width:0.5"/>
<polyline points="390.37,160.88 390.37,373.89" style="fill:none;stroke:black;stroke-width:0.5"/>
<polyline points="420.15,373.89 420.15,160.88" style="fill:none;stroke:black;stroke-width:0.5"/>
<polyline points="329.68,434.58 593.54,434.58" style="fill:none;stroke:black;stroke-width:0.5"/>
<polyline points="593.54,434.58 593.54,470.08" style="fill:none;stroke:black;stroke-width:0.5"/>
<polyline points="593.54,470.08 334.73,469.48" style="fill:none;stroke:black;stroke-width:0.5"/>
<polyline points="268.98,373.89 269.18,378.77 269.77,383.62 270.74,388.41 272.1,393.11 273.84,397.68 275.93,402.09 278.38,406.33 281.15,410.35 284.24,414.13 287.63,417.66 291.29,420.9 295.2,423.84 299.33,426.45 303.66,428.72 308.15,430.64 312.79,432.19 317.53,433.35 322.36,434.14 327.23,434.53 332.12,434.53 336.99,434.14 341.82,433.35 346.56,432.19 351.2,430.64 355.69,428.72 360.02,426.45 364.15,423.84 368.06,420.9 371.72,417.66 375.11,414.13 378.2,410.35 380.97,406.33 383.42,402.09 385.51,397.68 387.25,393.11 388.61,388.41 389.58,383.62 390.17,378.77 390.37,373.89" style="fill:none;stroke:black;stroke-width:0.5"/>
<polyline points="345.3,315.24 340.55,314.17 335.73,313.49 330.87,313.2 326,313.3 321.16,313.79 316.37,314.67 311.67,315.92 307.09,317.55 302.65,319.54 298.38,321.88 294.31,324.56 290.47,327.55 286.89,330.84 283.58,334.4 280.56,338.23 277.86,342.27 275.5,346.53 273.48,350.96 271.82,355.53 270.54,360.23 269.63,365.01 269.11,369.85 268.99,374.71 269.25,379.57 269.9,384.4 270.93,389.15 272.34,393.81 274.12,398.34 276.26,402.71 278.74,406.9 281.55,410.87 284.67,414.61 288.08,418.08 291.75,421.27 295.67,424.16 299.81,426.72 304.14,428.95 308.63,430.82 313.26,432.32 317.99,433.45 322.8,434.19 327.65,434.55 332.52,434.51 337.37,434.09 342.17,433.28 346.89,432.09 351.49,430.52 355.96,428.59 360.26,426.31 364.36,423.69 368.24,420.75 371.87,417.51 375.23,413.99 378.3,410.21 381.05,406.2 383.48,401.98 385.55,397.58 387.27,393.03 388.62,388.35 389.59,383.58 390.18,378.75 390.37,373.89" style="fill:none;stroke:black;stroke-width:0.5"/>
<polyline points="227.75,373.89 227.94,379.88 228.5,385.85 229.43,391.77 230.73,397.62 232.39,403.39 234.4,409.03 236.77,414.54 239.47,419.89 242.5,425.07 245.85,430.04 249.5,434.8 253.44,439.32 257.65,443.58 262.12,447.58 266.83,451.29 271.76,454.7 276.9,457.79 282.22,460.56 287.7,462.99 293.32,465.07 299.06,466.81 304.89,468.18 310.81,469.18 316.77,469.81 322.76,470.07 328.75,469.96 334.73,469.48" style="fill:none;stroke:black;stroke-width:0.5"/>
<polyline points="398.58,434.58 402.2,429.84 405.52,424.87 408.53,419.72 411.21,414.38 413.55,408.89 415.55,403.26 417.2,397.53 418.48,391.7 419.4,385.8 419.96,379.85 420.15,373.89" style="fill:none;stroke:black;stroke-width:0.5"/>
<polyline points="345.3,315.24 356.85,283.49" style="fill:none;stroke:black;stroke-width:0.5"/>
<polyline points="527.12,416.26 527.12,391.78" style="fill:none;stroke:black;stroke-width:0.5"/>
<polyline points="527.12,391.78 545.44,347.55" style="fill:none;stroke:black;stroke-width:0.5"/>
<polyline points="545.44,347.55 575.22,347.55" style="fill:none;stroke:black;stroke-width:0.5"/>
<polyline points="356.85,283.49 350.97,281.56 344.98,280.02 338.9,278.86 332.76,278.09 326.58,277.73 320.39,277.76 314.22,278.18 308.09,279.01 302.02,280.22 296.04,281.83 290.18,283.81 284.46,286.17 278.9,288.89 273.53,291.96 268.37,295.37 263.44,299.11 258.75,303.15 254.34,307.49 250.22,312.1 246.4,316.97 242.9,322.08 239.73,327.39 236.92,332.91 234.46,338.59 232.38,344.41 230.67,350.36 229.35,356.41 228.43,362.52 227.89,368.69 227.76,374.88 228.02,381.06 228.68,387.21 229.73,393.31 231.18,399.33 233.01,405.24 235.21,411.02 237.78,416.65 240.71,422.1 243.98,427.35 247.58,432.38 251.5,437.17 255.72,441.7 260.22,445.95 264.99,449.89 270,453.53 275.23,456.83 280.66,459.79 286.27,462.4 292.04,464.64 297.94,466.5 303.95,467.98 310.04,469.07 316.19,469.77 322.37,470.07 328.56,469.97 334.73,469.48" style="fill:none;stroke:black;stroke-width:0.5"/>
<polyline points="398.58,434.58 402.2,429.84 405.52,424.87 408.53,419.72 411.21,414.38 413.55,408.89 415.55,403.26 417.2,397.53 418.48,391.7 419.4,385.8 419.96,379.85 420.15,373.89" style="fill:none;stroke:black;stroke-width:0.5"/>
<polyline points="575.22,347.55 546.76,416.26" style="fill:none;stroke:black;stroke-width:0.5"/>
<polyline points="546.76,416.26 527.12,416.26" style="fill:none;stroke:black;stroke-width:0.5"/>
<polyline points="507.48,416.26 527.12,416.26" style="fill:none;stroke:black;stroke-width:0.5"/>
<polyline points="527.12,391.78 508.8,347.55" style="fill:none;stroke:black;stroke-width:0.5"/>
<polyline points="479.02,347.55 507.48,416.26" style="fill:none;stroke:black;stroke-width:0.5"/>
<polyline points="508.8,347.55 479.02,347.55" style="fill:none;stroke:black;stroke-width:0.5"/>
<path d="M268.98 294.94L268.98 160.88 227.75 160.88 268.98 294.94Z"
fill-rule="evenodd" fill="blue"/>
<path d="M262.29 300.05L262.29 273.19 227.75 160.88 262.29 300.05Z"
fill-rule="evenodd" fill="blue"/>
<path d="M262.29 300.05L268.98 294.94 262.29 273.19 262.29 300.05Z"
fill-rule="evenodd" fill="blue"/>
<path d="M256.07 305.72L256.07 275 227.75 160.88 256.07 305.72Z"
fill-rule="evenodd" fill="blue"/>
<path d="M256.07 305.72L262.29 300.05 256.07 275 256.07 305.72Z"
fill-rule="evenodd" fill="blue"/>
<path d="M250.38 311.91L250.38 276.58 227.75 160.88 250.38 311.91Z"
fill-rule="evenodd" fill="blue"/>
<path d="M250.38 311.91L256.07 305.72 250.38 276.58 250.38 311.91Z"
fill-rule="evenodd" fill="blue"/>
<path d="M245.24 318.58L245.24 277.63 227.75 160.88 245.24 318.58Z"
fill-rule="evenodd" fill="blue"/>
<path d="M245.24 318.58L250.38 311.91 245.24 277.63 245.24 318.58Z"
fill-rule="evenodd" fill="blue"/>
<path d="M240.71 325.67L240.71 277.71 227.75 160.88 240.71 325.67Z"
fill-rule="evenodd" fill="blue"/>
<path d="M240.71 325.67L245.24 318.58 240.71 277.71 240.71 325.67Z"
fill-rule="evenodd" fill="blue"/>
<path d="M236.81 333.13L236.81 276.13 227.75 160.88 236.81 333.13Z"
fill-rule="evenodd" fill="blue"/>
<path d="M236.81 333.13L240.71 325.67 236.81 276.13 236.81 333.13Z"
fill-rule="evenodd" fill="blue"/>
<path d="M233.59 340.9L233.59 271.76 227.75 160.88 233.59 340.9Z"
fill-rule="evenodd" fill="blue"/>
<path d="M233.59 340.9L236.81 333.13 233.59 271.76 233.59 340.9Z"
fill-rule="evenodd" fill="blue"/>
<path d="M231.05 348.92L231.05 262.6 227.75 160.88 231.05 348.92Z"
fill-rule="evenodd" fill="blue"/>
<path d="M231.05 348.92L233.59 340.9 231.05 262.6 231.05 348.92Z"
fill-rule="evenodd" fill="blue"/>
<path d="M229.22 357.14L229.22 244.72 227.75 160.88 229.22 357.14Z"
fill-rule="evenodd" fill="blue"/>
<path d="M229.22 357.14L231.05 348.92 229.22 244.72 229.22 357.14Z"
fill-rule="evenodd" fill="blue"/>
<path d="M228.12 365.48L228.12 210.04 227.75 160.88 228.12 365.48Z"
fill-rule="evenodd" fill="blue"/>
<path d="M228.12 365.48L229.22 357.14 228.12 210.04 228.12 365.48Z"
fill-rule="evenodd" fill="blue"/>
<path d="M227.75 373.89L228.12 365.48 227.75 160.88 227.75 373.89Z"
fill-rule="evenodd" fill="blue"/>
<path d="M334.73 469.48L334.73 434.58 329.68 434.58 334.73 469.48Z"
fill-rule="evenodd" fill="cyan"/>
<path d="M334.73 469.48L593.54 434.58 334.73 434.58 334.73 469.48Z"
fill-rule="evenodd" fill="cyan"/>
<path d="M593.54 470.08L593.54 434.58 334.73 469.48 593.54 470.08Z"
fill-rule="evenodd" fill="cyan"/>
<path d="M329.68 469.72L329.68 434.58 322.37 470.07 329.68 469.72Z"
fill-rule="evenodd" fill="cyan"/>
<path d="M329.68 469.72L334.73 469.48 329.68 434.58 329.68 469.72Z"
fill-rule="evenodd" fill="cyan"/>
<path d="M322.37 470.07L322.37 447.41 310.04 469.07 322.37 470.07Z"
fill-rule="evenodd" fill="cyan"/>
<path d="M322.37 470.07L329.68 434.58 322.37 447.41 322.37 470.07Z"
fill-rule="evenodd" fill="cyan"/>
<path d="M319.89 451.78L319.89 433.79 310.04 469.07 319.89 451.78Z"
fill-rule="evenodd" fill="cyan"/>
<path d="M319.89 451.78L329.68 434.58 319.89 433.79 319.89 451.78Z"
fill-rule="evenodd" fill="cyan"/>
<path d="M310.04 469.07L310.04 448.46 297.94 466.5 310.04 469.07Z"
fill-rule="evenodd" fill="cyan"/>
<path d="M310.04 469.07L319.89 433.79 310.04 448.46 310.04 469.07Z"
fill-rule="evenodd" fill="cyan"/>
<path d="M297.94 466.5L297.94 452.46 286.27 462.4 297.94 466.5Z"
fill-rule="evenodd" fill="cyan"/>
<path d="M297.94 466.5L319.89 433.79 297.94 452.46 297.94 466.5Z"
fill-rule="evenodd" fill="cyan"/>
<path d="M286.27 462.4L286.27 451.13 275.23 456.83 286.27 462.4Z"
fill-rule="evenodd" fill="cyan"/>
<path d="M286.27 462.4L319.89 433.79 286.27 451.13 286.27 462.4Z"
fill-rule="evenodd" fill="cyan"/>
<path d="M310.35 438.71L310.35 431.42 275.23 456.83 310.35 438.71Z"
fill-rule="evenodd" fill="cyan"/>
<path d="M310.35 438.71L319.89 433.79 310.35 431.42 310.35 438.71Z"
fill-rule="evenodd" fill="cyan"/>
<path d="M275.23 456.83L275.23 445.72 264.99 449.89 275.23 456.83Z"
fill-rule="evenodd" fill="cyan"/>
<path d="M275.23 456.83L310.35 431.42 275.23 445.72 275.23 456.83Z"
fill-rule="evenodd" fill="cyan"/>
<path d="M301.33 435.1L301.33 427.55 264.99 449.89 301.33 435.1Z"
fill-rule="evenodd" fill="cyan"/>
<path d="M301.33 435.1L310.35 431.42 301.33 427.55 301.33 435.1Z"
fill-rule="evenodd" fill="cyan"/>
<path d="M264.99 449.89L264.99 438.82 255.72 441.7 264.99 449.89Z"
fill-rule="evenodd" fill="cyan"/>
<path d="M264.99 449.89L301.33 427.55 264.99 438.82 264.99 449.89Z"
fill-rule="evenodd" fill="cyan"/>
<path d="M293.04 430.12L293.04 422.28 255.72 441.7 293.04 430.12Z"
fill-rule="evenodd" fill="cyan"/>
<path d="M293.04 430.12L301.33 427.55 293.04 422.28 293.04 430.12Z"
fill-rule="evenodd" fill="cyan"/>
<path d="M255.72 441.7L255.72 430.57 247.58 432.38 255.72 441.7Z"
fill-rule="evenodd" fill="cyan"/>
<path d="M255.72 441.7L293.04 422.28 255.72 430.57 255.72 441.7Z"
fill-rule="evenodd" fill="cyan"/>
<path d="M285.72 423.91L285.72 415.74 247.58 432.38 285.72 423.91Z"
fill-rule="evenodd" fill="cyan"/>
<path d="M285.72 423.91L293.04 422.28 285.72 415.74 285.72 423.91Z"
fill-rule="evenodd" fill="cyan"/>
<path d="M247.58 432.38L247.58 421.13 240.71 422.1 247.58 432.38Z"
fill-rule="evenodd" fill="cyan"/>
<path d="M247.58 432.38L285.72 415.74 247.58 421.13 247.58 432.38Z"
fill-rule="evenodd" fill="cyan"/>
<path d="M279.54 416.61L279.54 408.1 240.71 422.1 279.54 416.61Z"
fill-rule="evenodd" fill="cyan"/>
<path d="M279.54 416.61L285.72 415.74 279.54 408.1 279.54 416.61Z"
fill-rule="evenodd" fill="cyan"/>
<path d="M240.71 422.1L240.71 410.66 235.21 411.02 240.71 422.1Z"
fill-rule="evenodd" fill="cyan"/>
<path d="M240.71 422.1L279.54 408.1 240.71 410.66 240.71 422.1Z"
fill-rule="evenodd" fill="cyan"/>
<path d="M274.68 408.42L274.68 399.56 235.21 411.02 274.68 408.42Z"
fill-rule="evenodd" fill="cyan"/>
<path d="M274.68 408.42L279.54 408.1 274.68 399.56 274.68 408.42Z"
fill-rule="evenodd" fill="cyan"/>
<path d="M235.21 411.02L235.21 399.35 231.18 399.33 235.21 411.02Z"
fill-rule="evenodd" fill="cyan"/>
<path d="M235.21 411.02L274.68 399.56 235.21 399.35 235.21 411.02Z"
fill-rule="evenodd" fill="cyan"/>
<path d="M271.26 399.55L271.26 390.36 231.18 399.33 271.26 399.55Z"
fill-rule="evenodd" fill="cyan"/>
<path d="M271.26 399.55L274.68 399.56 271.26 390.36 271.26 399.55Z"
fill-rule="evenodd" fill="cyan"/>
<path d="M231.18 399.33L231.18 387.4 228.68 387.21 231.18 399.33Z"
fill-rule="evenodd" fill="cyan"/>
<path d="M231.18 399.33L271.26 390.36 231.18 387.4 231.18 399.33Z"
fill-rule="evenodd" fill="cyan"/>
<path d="M269.37 390.22L269.37 380.72 228.68 387.21 269.37 390.22Z"
fill-rule="evenodd" fill="cyan"/>
<path d="M269.37 390.22L271.26 390.36 269.37 380.72 269.37 390.22Z"
fill-rule="evenodd" fill="cyan"/>
<path d="M228.68 387.21L228.68 375.01 227.76 374.88 228.68 387.21Z"
fill-rule="evenodd" fill="cyan"/>
<path d="M228.68 387.21L269.37 380.72 228.68 375.01 228.68 387.21Z"
fill-rule="evenodd" fill="cyan"/>
<path d="M269.05 380.68L269.05 370.9 227.76 374.88 269.05 380.68Z"
fill-rule="evenodd" fill="cyan"/>
<path d="M269.05 380.68L269.37 380.72 269.05 370.9 269.05 380.68Z"
fill-rule="evenodd" fill="cyan"/>
<path d="M228.43 374.81L228.43 362.52 227.76 374.88 228.43 374.81Z"
fill-rule="evenodd" fill="cyan"/>
<path d="M228.43 374.81L269.05 370.9 228.43 362.52 228.43 374.81Z"
fill-rule="evenodd" fill="cyan"/>
<path d="M269.05 370.9L269.05 361.21 228.43 362.52 269.05 370.9Z"
fill-rule="evenodd" fill="cyan"/>
<path d="M269.05 370.9L270.33 361.17 269.05 361.21 269.05 370.9Z"
fill-rule="evenodd" fill="cyan"/>
<path d="M230.67 362.45L230.67 350.36 228.43 362.52 230.67 362.45Z"
fill-rule="evenodd" fill="cyan"/>
<path d="M230.67 362.45L270.33 361.17 230.67 350.36 230.67 362.45Z"
fill-rule="evenodd" fill="cyan"/>
<path d="M270.33 361.17L270.33 351.67 230.67 350.36 270.33 361.17Z"
fill-rule="evenodd" fill="cyan"/>
<path d="M270.33 361.17L273.16 351.76 270.33 351.67 270.33 361.17Z"
fill-rule="evenodd" fill="cyan"/>
<path d="M234.46 350.49L234.46 338.59 230.67 350.36 234.46 350.49Z"
fill-rule="evenodd" fill="cyan"/>
<path d="M234.46 350.49L273.16 351.76 234.46 338.59 234.46 350.49Z"
fill-rule="evenodd" fill="cyan"/>
<path d="M273.16 351.76L273.16 342.5 234.46 338.59 273.16 351.76Z"
fill-rule="evenodd" fill="cyan"/>
<path d="M273.16 351.76L277.47 342.93 273.16 342.5 273.16 351.76Z"
fill-rule="evenodd" fill="cyan"/>
<path d="M239.73 339.12L239.73 327.39 234.46 338.59 239.73 339.12Z"
fill-rule="evenodd" fill="cyan"/>
<path d="M239.73 339.12L277.47 342.93 239.73 327.39 239.73 339.12Z"
fill-rule="evenodd" fill="cyan"/>
<path d="M277.47 342.93L277.47 333.93 239.73 327.39 277.47 342.93Z"
fill-rule="evenodd" fill="cyan"/>
<path d="M277.47 342.93L283.14 334.92 277.47 333.93 277.47 342.93Z"
fill-rule="evenodd" fill="cyan"/>
<path d="M246.4 328.55L246.4 316.97 239.73 327.39 246.4 328.55Z"
fill-rule="evenodd" fill="cyan"/>
<path d="M246.4 328.55L283.14 334.92 246.4 316.97 246.4 328.55Z"
fill-rule="evenodd" fill="cyan"/>
<path d="M283.14 334.92L283.14 326.19 246.4 316.97 283.14 334.92Z"
fill-rule="evenodd" fill="cyan"/>
<path d="M283.14 334.92L290.04 327.92 283.14 326.19 283.14 334.92Z"
fill-rule="evenodd" fill="cyan"/>
<path d="M254.34 318.97L254.34 307.49 246.4 316.97 254.34 318.97Z"
fill-rule="evenodd" fill="cyan"/>
<path d="M254.34 318.97L290.04 327.92 254.34 307.49 254.34 318.97Z"
fill-rule="evenodd" fill="cyan"/>
<path d="M290.04 327.92L290.04 319.47 254.34 307.49 290.04 327.92Z"
fill-rule="evenodd" fill="cyan"/>
<path d="M290.04 327.92L297.97 322.13 290.04 319.47 290.04 327.92Z"
fill-rule="evenodd" fill="cyan"/>
<path d="M263.44 310.54L263.44 299.11 254.34 307.49 263.44 310.54Z"
fill-rule="evenodd" fill="cyan"/>
<path d="M263.44 310.54L297.97 322.13 263.44 299.11 263.44 310.54Z"
fill-rule="evenodd" fill="cyan"/>
<path d="M297.97 322.13L297.97 313.93 263.44 299.11 297.97 322.13Z"
fill-rule="evenodd" fill="cyan"/>
<path d="M297.97 322.13L306.73 317.7 297.97 313.93 297.97 322.13Z"
fill-rule="evenodd" fill="cyan"/>
<path d="M273.53 303.44L273.53 291.96 263.44 299.11 273.53 303.44Z"
fill-rule="evenodd" fill="cyan"/>
<path d="M273.53 303.44L306.73 317.7 273.53 291.96 273.53 303.44Z"
fill-rule="evenodd" fill="cyan"/>
<path d="M306.73 317.7L306.73 309.72 273.53 291.96 306.73 317.7Z"
fill-rule="evenodd" fill="cyan"/>
<path d="M306.73 317.7L316.09 314.73 306.73 309.72 306.73 317.7Z"
fill-rule="evenodd" fill="cyan"/>
<path d="M284.46 297.81L284.46 286.17 273.53 291.96 284.46 297.81Z"
fill-rule="evenodd" fill="cyan"/>
<path d="M284.46 297.81L316.09 314.73 284.46 286.17 284.46 297.81Z"
fill-rule="evenodd" fill="cyan"/>
<path d="M296.04 296.63L296.04 281.83 284.46 286.17 296.04 296.63Z"
fill-rule="evenodd" fill="cyan"/>
<path d="M296.04 296.63L316.09 314.73 296.04 281.83 296.04 296.63Z"
fill-rule="evenodd" fill="cyan"/>
<path d="M316.09 314.73L316.09 303.03 296.04 281.83 316.09 314.73Z"
fill-rule="evenodd" fill="cyan"/>
<path d="M316.09 314.73L325.81 313.31 316.09 303.03 316.09 314.73Z"
fill-rule="evenodd" fill="cyan"/>
<path d="M308.09 294.57L308.09 279.01 296.04 281.83 308.09 294.57Z"
fill-rule="evenodd" fill="cyan"/>
<path d="M308.09 294.57L325.81 313.31 308.09 279.01 308.09 294.57Z"
fill-rule="evenodd" fill="cyan"/>
<path d="M320.39 302.83L320.39 277.76 308.09 279.01 320.39 302.83Z"
fill-rule="evenodd" fill="cyan"/>
<path d="M320.39 302.83L325.81 313.31 320.39 277.76 320.39 302.83Z"
fill-rule="evenodd" fill="cyan"/>
<path d="M325.81 313.31L325.81 277.9 320.39 277.76 325.81 313.31Z"
fill-rule="evenodd" fill="cyan"/>
<path d="M325.81 313.31L332.76 278.09 325.81 277.9 325.81 313.31Z"
fill-rule="evenodd" fill="cyan"/>
<path d="M332.76 301.25L332.76 278.09 325.81 313.31 332.76 301.25Z"
fill-rule="evenodd" fill="cyan"/>
<path d="M332.76 301.25L344.98 280.02 332.76 278.09 332.76 301.25Z"
fill-rule="evenodd" fill="cyan"/>
<path d="M335.63 313.48L335.63 296.25 325.81 313.31 335.63 313.48Z"
fill-rule="evenodd" fill="cyan"/>
<path d="M335.63 313.48L344.98 280.02 335.63 296.25 335.63 313.48Z"
fill-rule="evenodd" fill="cyan"/>
<path d="M344.98 300.27L344.98 280.02 335.63 313.48 344.98 300.27Z"
fill-rule="evenodd" fill="cyan"/>
<path d="M344.98 300.27L356.85 283.49 344.98 280.02 344.98 300.27Z"
fill-rule="evenodd" fill="cyan"/>
<path d="M345.3 315.24L345.3 299.82 335.63 313.48 345.3 315.24Z"
fill-rule="evenodd" fill="cyan"/>
<path d="M345.3 315.24L356.85 283.49 345.3 299.82 345.3 315.24Z"
fill-rule="evenodd" fill="cyan"/>
<path d="M507.48 416.26L507.48 347.55 479.02 347.55 507.48 416.26Z"
fill-rule="evenodd" fill="blue"/>
<path d="M507.48 416.26L508.8 347.55 507.48 347.55 507.48 416.26Z"
fill-rule="evenodd" fill="blue"/>
<path d="M508.8 414.62L508.8 347.55 507.48 416.26 508.8 414.62Z"
fill-rule="evenodd" fill="blue"/>
<path d="M508.8 414.62L527.12 391.78 508.8 347.55 508.8 414.62Z"
fill-rule="evenodd" fill="blue"/>
<path d="M527.12 416.26L527.12 391.78 507.48 416.26 527.12 416.26Z"
fill-rule="evenodd" fill="blue"/>
<path d="M546.76 416.26L546.76 347.55 545.44 347.55 546.76 416.26Z"
fill-rule="evenodd" fill="blue"/>
<path d="M546.76 416.26L575.22 347.55 546.76 347.55 546.76 416.26Z"
fill-rule="evenodd" fill="blue"/>
<path d="M545.44 414.62L545.44 347.55 527.12 391.78 545.44 414.62Z"
fill-rule="evenodd" fill="blue"/>
<path d="M545.44 414.62L546.76 416.26 545.44 347.55 545.44 414.62Z"
fill-rule="evenodd" fill="blue"/>
<path d="M527.12 416.26L546.76 416.26 527.12 391.78 527.12 416.26Z"
fill-rule="evenodd" fill="blue"/>
<path d="M337.6 434.58L337.6 434.06 329.68 434.58 337.6 434.58Z"
fill-rule="evenodd" fill="blue"/>
<path d="M337.6 434.58L398.58 434.58 337.6 434.06 337.6 434.58Z"
fill-rule="evenodd" fill="blue"/>
<path d="M345.38 434.13L345.38 432.51 337.6 434.06 345.38 434.13Z"
fill-rule="evenodd" fill="blue"/>
<path d="M345.38 434.13L398.58 434.58 345.38 432.51 345.38 434.13Z"
fill-rule="evenodd" fill="blue"/>
<path d="M352.9 432.81L352.9 429.96 345.38 432.51 352.9 432.81Z"
fill-rule="evenodd" fill="blue"/>
<path d="M352.9 432.81L398.58 434.58 352.9 429.96 352.9 432.81Z"
fill-rule="evenodd" fill="blue"/>
<path d="M360.02 430.68L360.02 426.45 352.9 429.96 360.02 430.68Z"
fill-rule="evenodd" fill="blue"/>
<path d="M360.02 430.68L398.58 434.58 360.02 426.45 360.02 430.68Z"
fill-rule="evenodd" fill="blue"/>
<path d="M366.62 427.84L366.62 422.04 360.02 426.45 366.62 427.84Z"
fill-rule="evenodd" fill="blue"/>
<path d="M366.62 427.84L398.58 434.58 366.62 422.04 366.62 427.84Z"
fill-rule="evenodd" fill="blue"/>
<path d="M372.59 424.38L372.59 416.8 366.62 422.04 372.59 424.38Z"
fill-rule="evenodd" fill="blue"/>
<path d="M372.59 424.38L398.58 434.58 372.59 416.8 372.59 424.38Z"
fill-rule="evenodd" fill="blue"/>
<path d="M377.83 420.39L377.83 410.84 372.59 416.8 377.83 420.39Z"
fill-rule="evenodd" fill="blue"/>
<path d="M377.83 420.39L398.58 434.58 377.83 410.84 377.83 420.39Z"
fill-rule="evenodd" fill="blue"/>
<path d="M382.24 415.88L382.24 404.23 377.83 410.84 382.24 415.88Z"
fill-rule="evenodd" fill="blue"/>
<path d="M382.24 415.88L398.58 434.58 382.24 404.23 382.24 415.88Z"
fill-rule="evenodd" fill="blue"/>
<path d="M385.75 410.75L385.75 397.11 382.24 404.23 385.75 410.75Z"
fill-rule="evenodd" fill="blue"/>
<path d="M385.75 410.75L398.58 434.58 385.75 397.11 385.75 410.75Z"
fill-rule="evenodd" fill="blue"/>
<path d="M388.3 404.57L388.3 389.6 385.75 397.11 388.3 404.57Z"
fill-rule="evenodd" fill="blue"/>
<path d="M388.3 404.57L398.58 434.58 388.3 389.6 388.3 404.57Z"
fill-rule="evenodd" fill="blue"/>
<path d="M398.58 434.58L398.58 413.89 388.3 389.6 398.58 434.58Z"
fill-rule="evenodd" fill="blue"/>
<path d="M398.58 434.58L404.14 427.02 398.58 413.89 398.58 434.58Z"
fill-rule="evenodd" fill="blue"/>
<path d="M389.85 393.26L389.85 381.81 388.3 389.6 389.85 393.26Z"
fill-rule="evenodd" fill="blue"/>
<path d="M389.85 393.26L404.14 427.02 389.85 381.81 389.85 393.26Z"
fill-rule="evenodd" fill="blue"/>
<path d="M404.14 427.02L404.14 409.63 389.85 381.81 404.14 427.02Z"
fill-rule="evenodd" fill="blue"/>
<path d="M404.14 427.02L408.93 418.96 404.14 409.63 404.14 427.02Z"
fill-rule="evenodd" fill="blue"/>
<path d="M390.37 382.82L390.37 373.89 389.85 381.81 390.37 382.82Z"
fill-rule="evenodd" fill="blue"/>
<path d="M390.37 382.82L408.93 418.96 390.37 373.89 390.37 382.82Z"
fill-rule="evenodd" fill="blue"/>
<path d="M408.93 418.96L408.93 404 390.37 373.89 408.93 418.96Z"
fill-rule="evenodd" fill="blue"/>
<path d="M408.93 418.96L412.92 410.47 408.93 404 408.93 418.96Z"
fill-rule="evenodd" fill="blue"/>
<path d="M412.92 410.47L412.92 398.24 390.37 373.89 412.92 410.47Z"
fill-rule="evenodd" fill="blue"/>
<path d="M412.92 410.47L416.06 401.64 412.92 398.24 412.92 410.47Z"
fill-rule="evenodd" fill="blue"/>
<path d="M416.06 401.64L416.06 391.02 390.37 373.89 416.06 401.64Z"
fill-rule="evenodd" fill="blue"/>
<path d="M416.06 401.64L418.32 392.53 416.06 391.02 416.06 401.64Z"
fill-rule="evenodd" fill="blue"/>
<path d="M418.32 392.53L418.32 382.82 390.37 373.89 418.32 392.53Z"
fill-rule="evenodd" fill="blue"/>
<path d="M418.32 392.53L419.69 383.25 418.32 382.82 418.32 392.53Z"
fill-rule="evenodd" fill="blue"/>
<path d="M419.69 383.25L419.69 373.89 390.37 373.89 419.69 383.25Z"
fill-rule="evenodd" fill="blue"/>
<path d="M419.69 383.25L420.15 373.89 419.69 373.89 419.69 383.25Z"
fill-rule="evenodd" fill="blue"/>
<path d="M390.37 373.89L420.15 373.89 390.37 160.88 390.37 373.89Z"
fill-rule="evenodd" fill="blue"/>
<path d="M420.15 373.89L420.15 160.88 390.37 160.88 420.15 373.89Z"
fill-rule="evenodd" fill="blue"/>
</svg>
